#N canvas 41 112 1429 801 10;
#X obj 207 595 *~ 0.25;
#X obj 274 308 fd_seltab 0;
#X msg 259 220 2;
#X obj 259 241 t b f b;
#X obj 278 267 until;
#X obj 278 288 random 13;
#X obj 259 359 list store;
#X msg 274 329 append \$1;
#X obj 182 276 fd_iterate;
#X obj 182 297 t f b;
#X obj 202 390 list;
#X obj 182 318 + 1;
#X obj 39 333 / 100;
#X obj 39 375 mtof;
#X obj 17 294 + 1;
#X obj 21 400 list;
#X obj 38 451 list;
#X obj 79 381 random 10000;
#X obj 79 402 + 123;
#X obj 17 273 t f b b;
#X obj 150 116 t b b;
#X obj 427 493 random 1200;
#X obj 289 74 del;
#X obj 148 95 bng 15 250 50 0 empty empty empty 17 7 0 10 -262144 -1
-1;
#X msg 182 255 50;
#X floatatom 443 451 5 0 0 0 - - -, f 5;
#X obj 19 179 random 1200;
#X msg 17 211 50 \$1 \, bang;
#X obj 17 242 fd_delit;
#X obj 428 427 sel;
#X floatatom 483 410 5 0 0 0 - - -, f 5;
#X obj 133 528 clone -s 1 _voice 50;
#X obj 433 381 route 50;
#X obj 221 676 throw~ dacout-1;
#X obj 647 583 *~ 0.25;
#X obj 835 388 fd_seltab 0;
#X msg 820 300 2;
#X obj 820 321 t b f b;
#X obj 839 347 until;
#X obj 839 368 random 13;
#X obj 820 439 list store;
#X msg 835 409 append \$1;
#X obj 743 356 fd_iterate;
#X obj 743 377 t f b;
#X obj 759 457 list;
#X obj 743 398 + 1;
#X obj 591 372 / 100;
#X obj 591 414 mtof;
#X obj 569 333 + 1;
#X obj 578 446 list;
#X obj 599 489 list;
#X obj 635 410 random 10000;
#X obj 635 431 + 123;
#X obj 569 312 t f b b;
#X obj 647 167 t b b;
#X obj 1043 484 random 1200;
#X obj 741 105 del;
#X obj 649 128 bng 15 250 50 0 empty empty empty 17 7 0 10 -262144
-1 -1;
#X msg 743 335 50;
#X floatatom 1063 466 5 0 0 0 - - -, f 5;
#X obj 571 208 random 1200;
#X msg 568 237 50 \$1 \, bang;
#X obj 568 285 fd_delit;
#X obj 1042 440 sel;
#X floatatom 1095 409 5 0 0 0 - - -, f 5;
#X obj 650 535 clone -s 1 _voice 50;
#X obj 1045 380 route 50;
#X obj 646 676 throw~ dacout-2;
#X obj 591 351 random 10000;
#X obj 39 312 random 10000;
#X obj 39 354 + 4;
#X obj 591 393 + 4;
#X obj 453 5 inlet;
#X obj 446 87 t b b;
#X obj 736 81 spigot 1;
#X obj 291 44 spigot 1;
#X obj 442 66 sel 1;
#X obj 465 37 t f f f f, f 53;
#X obj 1276 128 == 0;
#X obj 1019 754 spigot;
#X obj 1019 775 outlet;
#X obj 433 402 t f f;
#X obj 944 675 ==;
#X obj 1045 401 t f f;
#X obj 949 631 t b f;
#X obj 988 722 sel 1;
#X obj 962 591 == 0;
#X obj 594 734 == 0;
#X obj 648 381 r dur-max;
#X obj 99 344 r dur-max;
#X obj 1191 455 r dur-max;
#X obj 1191 477 * 0.1;
#X obj 491 447 r dur-max;
#X obj 491 469 * 0.1;
#X obj 88 287 r fre-max;
#X obj 80 263 r fre-min;
#X obj 653 322 r fre-max;
#X obj 639 298 r fre-min;
#X obj 688 184 r dur-max;
#X obj 113 151 r dur-max;
#X obj 688 206 * 0.5;
#X obj 113 173 * 0.5;
#X connect 0 0 33 0;
#X connect 1 0 7 0;
#X connect 2 0 3 0;
#X connect 3 0 6 0;
#X connect 3 1 4 0;
#X connect 3 2 6 1;
#X connect 4 0 5 0;
#X connect 5 0 1 0;
#X connect 6 0 10 1;
#X connect 7 0 6 0;
#X connect 8 0 9 0;
#X connect 9 0 11 0;
#X connect 9 1 2 0;
#X connect 10 0 31 1;
#X connect 11 0 10 0;
#X connect 12 0 70 0;
#X connect 13 0 15 1;
#X connect 14 0 15 0;
#X connect 15 0 16 0;
#X connect 16 0 31 0;
#X connect 17 0 18 0;
#X connect 18 0 16 1;
#X connect 19 0 14 0;
#X connect 19 1 69 0;
#X connect 19 2 17 0;
#X connect 20 0 26 0;
#X connect 20 1 24 0;
#X connect 21 0 75 0;
#X connect 22 0 23 0;
#X connect 23 0 20 0;
#X connect 24 0 8 0;
#X connect 26 0 27 0;
#X connect 27 0 28 0;
#X connect 28 0 19 0;
#X connect 29 0 21 0;
#X connect 29 1 25 0;
#X connect 31 0 0 0;
#X connect 31 1 32 0;
#X connect 32 0 81 0;
#X connect 32 1 30 0;
#X connect 34 0 67 0;
#X connect 35 0 41 0;
#X connect 36 0 37 0;
#X connect 37 0 40 0;
#X connect 37 1 38 0;
#X connect 37 2 40 1;
#X connect 38 0 39 0;
#X connect 39 0 35 0;
#X connect 40 0 44 1;
#X connect 41 0 40 0;
#X connect 42 0 43 0;
#X connect 43 0 45 0;
#X connect 43 1 36 0;
#X connect 44 0 65 1;
#X connect 45 0 44 0;
#X connect 46 0 71 0;
#X connect 47 0 49 1;
#X connect 48 0 49 0;
#X connect 49 0 50 0;
#X connect 50 0 65 0;
#X connect 51 0 52 0;
#X connect 52 0 50 1;
#X connect 53 0 48 0;
#X connect 53 1 68 0;
#X connect 53 2 51 0;
#X connect 54 0 60 0;
#X connect 54 1 58 0;
#X connect 55 0 74 0;
#X connect 56 0 57 0;
#X connect 57 0 54 0;
#X connect 58 0 42 0;
#X connect 60 0 61 0;
#X connect 61 0 62 0;
#X connect 62 0 53 0;
#X connect 63 0 55 0;
#X connect 63 1 59 0;
#X connect 65 0 34 0;
#X connect 65 1 66 0;
#X connect 66 0 83 0;
#X connect 66 1 64 0;
#X connect 68 0 46 0;
#X connect 69 0 12 0;
#X connect 70 0 13 0;
#X connect 71 0 47 0;
#X connect 72 0 77 0;
#X connect 73 0 23 0;
#X connect 73 1 57 0;
#X connect 74 0 56 0;
#X connect 75 0 22 0;
#X connect 76 0 73 0;
#X connect 77 0 76 0;
#X connect 77 1 75 1;
#X connect 77 2 74 1;
#X connect 77 3 78 0;
#X connect 78 0 79 1;
#X connect 79 0 80 0;
#X connect 81 0 29 0;
#X connect 81 1 87 0;
#X connect 82 0 85 0;
#X connect 83 0 63 0;
#X connect 83 1 86 0;
#X connect 84 0 82 0;
#X connect 84 1 82 1;
#X connect 85 0 79 0;
#X connect 86 0 84 0;
#X connect 87 0 82 0;
#X connect 88 0 51 1;
#X connect 89 0 17 1;
#X connect 90 0 91 0;
#X connect 91 0 55 1;
#X connect 92 0 93 0;
#X connect 93 0 21 1;
#X connect 94 0 69 1;
#X connect 95 0 70 1;
#X connect 96 0 68 1;
#X connect 97 0 71 1;
#X connect 98 0 100 0;
#X connect 99 0 101 0;
#X connect 100 0 60 1;
#X connect 101 0 26 1;
