#N canvas 680 222 492 529 12;
#X obj 29 21 inlet;
#X obj 29 455 *~;
#X obj 47 427 lop~ 200;
#X obj 29 67 unpack;
#X msg 47 294 0 \, 1 \$1;
#X obj 47 357 +~ 1;
#X obj 29 481 *~;
#X obj 29 502 outlet~;
#X obj 324 485 switch~;
#X obj 157 22 inlet;
#X obj 157 43 list split 1;
#X msg 39 216 set \$1;
#X msg 63 380 set \$1;
#X obj 208 176 del;
#X msg 208 197 0;
#X msg 262 194 1;
#X obj 47 336 *~ 2048;
#X msg 377 374 1;
#X obj 349 290 t b b;
#X obj 277 362 line~;
#X obj 208 290 t b b;
#X msg 189 362 0;
#X obj 208 232 change;
#X obj 331 439 t f f, f 14;
#X obj 208 256 sel;
#X obj 188 335 del 10;
#X msg 309 335 0 \, 1 10;
#X msg 249 335 0 10;
#X obj 29 192 line~;
#X obj 47 315 line~;
#X obj 29 238 tabosc4~;
#X obj 47 402 tabread4~;
#X obj 29 43 spigot 1;
#X obj 185 154 t f f b;
#X obj 429 169 == 0;
#X obj 29 89 t b f;
#X obj 29 111 f \$1;
#X obj 29 133 tabread \$2;
#X obj 29 155 * 1;
#X connect 0 0 32 0;
#X connect 1 0 6 0;
#X connect 2 0 1 1;
#X connect 3 0 35 0;
#X connect 3 1 33 0;
#X connect 4 0 29 0;
#X connect 5 0 31 0;
#X connect 6 0 7 0;
#X connect 9 0 10 0;
#X connect 10 0 11 0;
#X connect 10 1 12 0;
#X connect 11 0 30 0;
#X connect 12 0 31 0;
#X connect 13 0 14 0;
#X connect 14 0 22 0;
#X connect 15 0 22 0;
#X connect 16 0 5 0;
#X connect 17 0 23 0;
#X connect 18 0 26 0;
#X connect 18 1 17 0;
#X connect 19 0 6 1;
#X connect 20 0 25 0;
#X connect 20 1 27 0;
#X connect 21 0 23 0;
#X connect 22 0 24 0;
#X connect 23 0 8 0;
#X connect 23 1 34 0;
#X connect 24 0 20 0;
#X connect 24 1 18 0;
#X connect 25 0 21 0;
#X connect 26 0 19 0;
#X connect 27 0 19 0;
#X connect 28 0 30 0;
#X connect 29 0 16 0;
#X connect 30 0 1 0;
#X connect 31 0 2 0;
#X connect 32 0 3 0;
#X connect 33 0 4 0;
#X connect 33 1 13 0;
#X connect 33 2 15 0;
#X connect 34 0 32 1;
#X connect 35 0 36 0;
#X connect 35 1 38 1;
#X connect 36 0 37 0;
#X connect 37 0 38 0;
#X connect 38 0 28 0;
