#N canvas 0 22 450 300 10;
#X obj 54 95 *~;
#X obj 54 47 catch~ \$2-\$1;
#X obj 55 207 dac~ \$1;
#X obj 54 68 hip~ \$4;
#X obj 184 51 r \$3;
#X obj 184 73 dbtorms;
#X obj 184 95 pack f 5;
#X obj 184 117 line~;
#X obj 139 193 outlet~;
#X obj 279 194 outlet~;
#X connect 0 0 2 0;
#X connect 0 0 8 0;
#X connect 1 0 3 0;
#X connect 1 0 9 0;
#X connect 3 0 0 0;
#X connect 4 0 5 0;
#X connect 5 0 6 0;
#X connect 6 0 7 0;
#X connect 7 0 0 1;
