#N canvas 522 372 449 301 12;
#X declare -lib Gem;
#N canvas 0 23 450 300 face_tracker 0;
#X obj 31 60 gemhead 1;
#X obj 31 90 pix_video;
#X obj 53 16 loadbang;
#X obj 31 111 pix_rgba;
#X obj 31 182 pix_texture;
#X obj 31 203 square 4;
#X msg 152 110 reset;
#X obj 31 151 pix_opencv/pix_opencv_facetracker;
#X obj 152 87 r reset;
#X obj 31 227 bang;
#X obj 31 251 s send-feats;
#X obj 209 218 array define ALL_FEATS 132;
#X msg 53 46 settab ALL_FEATURES ALL_FEATS \, settab OUTER_MOUTH OUTER_MOUTH
;
#X obj 209 249 array define OUTER_MOUTH 36;
#X connect 0 0 1 0;
#X connect 1 0 3 0;
#X connect 2 0 12 0;
#X connect 3 0 7 0;
#X connect 4 0 5 0;
#X connect 5 0 9 0;
#X connect 6 0 7 0;
#X connect 7 0 4 0;
#X connect 8 0 6 0;
#X connect 9 0 10 0;
#X connect 12 0 7 0;
#X restore 25 45 pd face_tracker;
#N canvas 0 23 450 300 send-feats 0;
#X msg 197 62 0 \, 45 \, 58 \, 76 \, 22;
#X obj 204 90 array get ALL_FEATS 0 1;
#X obj 58 164 list prepend append;
#X obj 58 188 list trim;
#X obj 58 212 list store;
#X obj 35 45 t b b b;
#X obj 58 236 s netreceive;
#X obj 35 7 r send-feats;
#X obj 198 32 t b b;
#X obj 66 114 array get OUTER_MOUTH 0 1;
#X msg 59 86 7 \, 28;
#X connect 0 0 1 0;
#X connect 1 0 2 0;
#X connect 2 0 3 0;
#X connect 3 0 4 0;
#X connect 4 0 6 0;
#X connect 5 0 4 0;
#X connect 5 1 8 0;
#X connect 5 2 4 1;
#X connect 7 0 5 0;
#X connect 8 0 10 0;
#X connect 8 1 0 0;
#X connect 9 0 2 0;
#X connect 10 0 9 0;
#X restore 25 74 pd send-feats;
#N canvas 0 23 450 300 gemwin 0;
#X obj 21 33 declare -lib Gem;
#X obj 24 65 r gemwin;
#X obj 24 89 gemwin;
#X obj 35 161 loadbang;
#X msg 34 187 \; gemwin 0 \, destroy \, reset \, dimen 300 300 \, create
\, 1;
#X connect 1 0 2 0;
#X connect 3 0 4 0;
#X restore 25 16 pd gemwin;
#N canvas 0 23 450 300 display-feats 0;
#N canvas 0 23 450 300 left-side 0;
#X obj 31 24 gemhead 2;
#X obj 31 48 color 1 0 0;
#X obj 31 172 translateXYZ 0 0 0;
#X obj 31 196 rectangle 0.01 4;
#X obj 31 72 t a b;
#X obj 108 94 array get ALL_FEATS 0 1;
#X obj 108 118 * 8;
#X obj 108 142 - 4;
#X connect 0 0 1 0;
#X connect 1 0 4 0;
#X connect 2 0 3 0;
#X connect 4 0 2 0;
#X connect 4 1 5 0;
#X connect 5 0 6 0;
#X connect 6 0 7 0;
#X connect 7 0 2 1;
#X restore 7 124 pd left-side 0;
#N canvas 0 23 450 300 right-side 0;
#X obj 74 26 gemhead 2;
#X obj 74 50 color 1 0 0;
#X obj 66 230 translateXYZ 0 0 0;
#X obj 66 254 rectangle 0.01 4;
#X obj 95 85 t a b;
#X obj 114 150 * 8;
#X obj 114 174 - 4;
#X obj 114 126 array get ALL_FEATS 45 1;
#X connect 0 0 1 0;
#X connect 1 0 4 0;
#X connect 2 0 3 0;
#X connect 4 0 2 0;
#X connect 4 1 7 0;
#X connect 5 0 6 0;
#X connect 6 0 2 1;
#X connect 7 0 5 0;
#X restore 307 140 pd right-side 45;
#N canvas 0 23 450 300 left-eyebrow 0;
#X obj 82 26 gemhead 2;
#X obj 74 230 translateXYZ 0 0 0;
#X obj 103 85 t a b;
#X obj 74 254 rectangle 4 0.01;
#X obj 122 150 * -8;
#X obj 122 174 + 4;
#X obj 82 50 color 0 1 0;
#X obj 122 126 array get ALL_FEATS 58 1;
#X connect 0 0 6 0;
#X connect 1 0 3 0;
#X connect 2 0 1 0;
#X connect 2 1 7 0;
#X connect 4 0 5 0;
#X connect 5 0 1 2;
#X connect 6 0 2 0;
#X connect 7 0 4 0;
#X restore 71 61 pd left-eyebrow 58;
#N canvas 0 23 450 300 right-eyebrow 0;
#X obj 115 19 gemhead 2;
#X obj 107 223 translateXYZ 0 0 0;
#X obj 136 78 t a b;
#X obj 107 247 rectangle 4 0.01;
#X obj 155 143 * -8;
#X obj 155 167 + 4;
#X obj 155 119 array get ALL_FEATS 76 1;
#X obj 115 43 color 0 0 1;
#X connect 0 0 7 0;
#X connect 1 0 3 0;
#X connect 2 0 1 0;
#X connect 2 1 6 0;
#X connect 4 0 5 0;
#X connect 5 0 1 2;
#X connect 6 0 4 0;
#X connect 7 0 2 0;
#X restore 214 61 pd right-eyebrow 76;
#N canvas 473 24 450 300 bottom 0;
#X obj 112 18 gemhead 2;
#X obj 112 42 color 1 0 0;
#X obj 104 222 translateXYZ 0 0 0;
#X obj 133 77 t a b;
#X obj 104 246 rectangle 4 0.01;
#X obj 152 142 * -8;
#X obj 152 166 + 4;
#X obj 152 118 array get ALL_FEATS 22 1;
#X connect 0 0 1 0;
#X connect 1 0 3 0;
#X connect 2 0 4 0;
#X connect 3 0 2 0;
#X connect 3 1 7 0;
#X connect 5 0 6 0;
#X connect 6 0 2 2;
#X connect 7 0 5 0;
#X restore 168 247 pd bottom 22;
#N canvas 499 142 450 300 upper-lip 0;
#X obj 112 18 gemhead 2;
#X obj 104 222 translateXYZ 0 0 0;
#X obj 133 77 t a b;
#X obj 104 246 rectangle 4 0.01;
#X obj 173 162 * -8;
#X obj 173 186 + 4;
#X obj 112 42 color 1 1 0;
#X obj 173 138 array get OUTER_MOUTH 7 1;
#X connect 0 0 6 0;
#X connect 1 0 3 0;
#X connect 2 0 1 0;
#X connect 2 1 7 0;
#X connect 4 0 5 0;
#X connect 5 0 1 2;
#X connect 6 0 2 0;
#X connect 7 0 4 0;
#X restore 160 141 pd upper-lip 7;
#N canvas 582 170 450 300 bottom-lip 0;
#X obj 112 18 gemhead 2;
#X obj 104 222 translateXYZ 0 0 0;
#X obj 133 77 t a b;
#X obj 104 246 rectangle 4 0.01;
#X obj 173 162 * -8;
#X obj 173 186 + 4;
#X obj 112 42 color 1 1 0;
#X obj 173 138 array get OUTER_MOUTH 28 1;
#X connect 0 0 6 0;
#X connect 1 0 3 0;
#X connect 2 0 1 0;
#X connect 2 1 7 0;
#X connect 4 0 5 0;
#X connect 5 0 1 2;
#X connect 6 0 2 0;
#X connect 7 0 4 0;
#X restore 160 171 pd bottom-lip 28;
#X restore 25 103 pd display-feats;
#N canvas 0 23 450 300 netreceive 0;
#X obj 90 110 netreceive 5001;
#X obj 89 61 list prepend send;
#X obj 89 85 list trim;
#X obj 72 166 route reset;
#X obj 72 190 s reset;
#X obj 90 25 r netreceive;
#X obj 204 225 print;
#X connect 0 0 3 0;
#X connect 1 0 2 0;
#X connect 2 0 0 0;
#X connect 3 0 4 0;
#X connect 3 1 6 0;
#X connect 5 0 1 0;
#X restore 25 132 pd netreceive 5001;
